<?xml version="1.0" encoding="UTF-8" standalone="no"?>
<!-- Created with Inkscape (http://www.inkscape.org/) -->

<svg
   xmlns:dc="http://purl.org/dc/elements/1.1/"
   xmlns:cc="http://creativecommons.org/ns#"
   xmlns:rdf="http://www.w3.org/1999/02/22-rdf-syntax-ns#"
   xmlns:svg="http://www.w3.org/2000/svg"
   xmlns="http://www.w3.org/2000/svg"
   xmlns:sodipodi="http://sodipodi.sourceforge.net/DTD/sodipodi-0.dtd"
   xmlns:inkscape="http://www.inkscape.org/namespaces/inkscape"
   sodipodi:docname="lelelerandom.svg"
   width="16"
   id="svg7384"
   height="16"
   inkscape:version="0.91 r13725"
   version="1.1">
  <metadata
     id="metadata90">
    <rdf:RDF>
      <cc:Work
         rdf:about="">
        <dc:format>image/svg+xml</dc:format>
        <dc:type
           rdf:resource="http://purl.org/dc/dcmitype/StillImage" />
        <dc:title>Gnome Symbolic Icon Theme</dc:title>
      </cc:Work>
    </rdf:RDF>
  </metadata>
  <sodipodi:namedview
     inkscape:current-layer="layer9"
     pagecolor="#555753"
     guidetolerance="10"
     inkscape:object-paths="false"
     showborder="false"
     inkscape:zoom="7.9999996"
     inkscape:snap-global="true"
     inkscape:window-width="881"
     inkscape:pageshadow="2"
     borderopacity="1"
     objecttolerance="10"
     inkscape:window-height="733"
     inkscape:snap-bbox-midpoints="false"
     inkscape:snap-to-guides="true"
     id="namedview88"
     showguides="true"
     inkscape:pageopacity="1"
     inkscape:snap-bbox="true"
     inkscape:snap-others="false"
     bordercolor="#666666"
     inkscape:window-maximized="0"
     inkscape:cx="-4.4375016"
     inkscape:cy="15.32987"
     inkscape:snap-nodes="true"
     inkscape:object-nodes="false"
     inkscape:window-x="3"
     inkscape:window-y="25"
     gridtolerance="10"
     showgrid="false"
     inkscape:bbox-paths="false"
     inkscape:snap-grids="true"
     inkscape:guide-bbox="true">
    <inkscape:grid
       spacingx="1px"
       spacingy="1px"
       visible="true"
       id="grid4866"
       enabled="true"
       type="xygrid"
       empspacing="2"
       snapvisiblegridlinesonly="true" />
  </sodipodi:namedview>
  <title
     id="title9167">Gnome Symbolic Icon Theme</title>
  <defs
     id="defs7386" />
  <g
     style="display:inline"
     transform="translate(-60.999948,-277)"
     id="layer9"
     inkscape:label="status"
     inkscape:groupmode="layer">
    <path
       style="font-size:medium;font-style:normal;font-variant:normal;font-weight:normal;font-stretch:normal;text-indent:0;text-align:start;text-decoration:none;line-height:normal;letter-spacing:normal;word-spacing:normal;text-transform:none;direction:ltr;block-progression:tb;writing-mode:lr-tb;text-anchor:start;baseline-shift:baseline;color:#bebebe;fill:#bebebe;fill-opacity:1;stroke:none;stroke-width:2;marker:none;visibility:visible;display:inline;overflow:visible;enable-background:accumulate;font-family:Sans;-inkscape-font-specification:Sans"
       inkscape:connector-curvature="0"
       id="path4544"
       d="m 62,280 0,2 3,0 c 0.571297,0 1,0.4287 1,1 l 0,4 c 0,1.6447 1.355297,3 3,3 l 6,0 0,-2 -6,0 c -0.571297,0 -1,-0.4287 -1,-1 l 0,-4 c 0,-1.6447 -1.355297,-3 -3,-3 l -3,0 z" />
    <path
       style="font-size:medium;font-style:normal;font-variant:normal;font-weight:normal;font-stretch:normal;text-indent:0;text-align:start;text-decoration:none;line-height:normal;letter-spacing:normal;word-spacing:normal;text-transform:none;direction:ltr;block-progression:tb;writing-mode:lr-tb;text-anchor:start;baseline-shift:baseline;color:#bebebe;fill:#bebebe;fill-opacity:1;stroke:none;stroke-width:2;marker:none;visibility:visible;display:inline;overflow:visible;enable-background:accumulate;font-family:Sans;-inkscape-font-specification:Sans"
       inkscape:connector-curvature="0"
       id="rect3217-6-2"
       d="m 72.78125,286 a 1.0001,1.0001 0 0 0 -0.5,1.71875 L 73.5625,289 l -1.28125,1.28125 a 1.016466,1.016466 0 1 0 1.4375,1.4375 l 2,-2 0.6875,-0.71875 -0.6875,-0.71875 -2,-2 A 1.0001,1.0001 0 0 0 72.78125,286 z" />
    <path
       style="font-size:medium;font-style:normal;font-variant:normal;font-weight:normal;font-stretch:normal;text-indent:0;text-align:start;text-decoration:none;line-height:normal;letter-spacing:normal;word-spacing:normal;text-transform:none;direction:ltr;block-progression:tb;writing-mode:lr-tb;text-anchor:start;baseline-shift:baseline;color:#bebebe;fill:#bebebe;fill-opacity:1;stroke:none;stroke-width:2;marker:none;visibility:visible;display:inline;overflow:visible;enable-background:accumulate;font-family:Sans;-inkscape-font-specification:Sans"
       inkscape:connector-curvature="0"
       id="rect3217-6-2-2"
       d="m 72.78125,278 a 1.0001,1.0001 0 0 0 -0.5,1.71875 L 73.5625,281 l -1.28125,1.28125 a 1.016466,1.016466 0 1 0 1.4375,1.4375 l 2,-2 0.6875,-0.71875 -0.6875,-0.71875 -2,-2 A 1.0001,1.0001 0 0 0 72.78125,278 z" />
    <path
       style="font-size:medium;font-style:normal;font-variant:normal;font-weight:normal;font-stretch:normal;text-indent:0pt;text-align:start;text-decoration:none;line-height:normal;letter-spacing:normal;word-spacing:normal;text-transform:none;direction:ltr;text-anchor:start;color:#bebebe;fill:#bebebe;fill-opacity:1;stroke:none;stroke-width:2;marker:none;visibility:visible;display:inline;overflow:visible;font-family:Andale Mono"
       inkscape:connector-curvature="0"
       id="path4544-1"
       d="m 68.99995,280 c -0.229573,0 -0.440853,0.0438 -0.65625,0.0937 0.481303,0.5511 0.861254,1.17761 1.03125,1.90625 l 5.625,0 0,-2 -6,0 z m -7,8 0,2 3,0 c 0.229573,0 0.440853,-0.0438 0.65625,-0.0937 -0.481303,-0.55115 -0.861254,-1.17766 -1.03125,-1.9063 l -2.625,0 z" />
    <rect
       style="color:#000000;fill:#bebebe;fill-opacity:1;fill-rule:nonzero;stroke:none;stroke-width:2;marker:none;visibility:visible;display:inline;overflow:visible;enable-background:accumulate"
       width="1"
       id="rect4723-9"
       height="1"
       y="286"
       x="72" />
    <rect
       style="color:#000000;fill:#bebebe;fill-opacity:1;fill-rule:nonzero;stroke:none;stroke-width:2;marker:none;visibility:visible;display:inline;overflow:visible;enable-background:accumulate"
       width="1"
       id="rect4723-0-7"
       height="1"
       y="291"
       x="72" />
    <rect
       style="color:#000000;fill:#bebebe;fill-opacity:1;fill-rule:nonzero;stroke:none;stroke-width:2;marker:none;visibility:visible;display:inline;overflow:visible;enable-background:accumulate"
       width="1"
       id="rect4723-9-6"
       height="1"
       y="278"
       x="72" />
    <rect
       style="color:#000000;fill:#bebebe;fill-opacity:1;fill-rule:nonzero;stroke:none;stroke-width:2;marker:none;visibility:visible;display:inline;overflow:visible;enable-background:accumulate"
       width="1"
       id="rect4723-0-7-8"
       height="1"
       y="283"
       x="72" />
    <path
       style="fill:#333333"
       d="m 11.068886,14.311988 c 0,-0.482205 0.07051,-0.760281 0.250939,-0.98966 l 0.250939,-0.319018 -2.1571889,-0.042 C 7.0482676,12.915252 6.8030147,12.851333 5.9644709,12.062386 5.1659246,11.311071 5.1375245,11.188275 5.0688858,8.1900769 4.9904345,4.7632568 5.149545,4.9826302 2.7425377,4.9826302 l -1.6736521,0 0,-0.9375001 0,-0.9375 1.8165149,0 c 1.2417577,0 1.9437848,0.053333 2.2187501,0.1685577 0.6520836,0.2732574 1.2301193,0.8400452 1.5438764,1.5138342 0.2764631,0.5937008 0.2934872,0.7723487 0.2946377,3.0918878 0.0012,2.4207982 0.00624,2.4676182 0.3027044,2.8125002 l 0.3014834,0.35072 2.0110167,0.04223 c 1.1060598,0.02323 2.0110168,-0.0013 2.0110168,-0.05444 0,-0.05317 -0.10747,-0.212801 -0.238821,-0.354732 -0.248016,-0.267991 -0.299906,-0.485159 -0.275573,-1.1533194 0.01306,-0.3587091 0.05959,-0.4028979 0.503058,-0.477822 0.685695,-0.1158474 0.984235,0.076425 2.511336,1.6174014 l 1.3125,1.324426 -1.51014,1.496879 -1.510141,1.496879 -0.646109,0 -0.64611,0 0,-0.670643 z"
       id="path3351"
       inkscape:connector-curvature="0"
       transform="translate(60.999948,277)" />
    <path
       style="fill:#333333"
       d="m 11.068886,6.3119876 c 0,-0.4891967 0.07009,-0.7597522 0.259073,-1.0000001 l 0.259072,-0.3293573 -1.562409,0 -1.5624093,0 L 8.1347103,4.2672706 C 7.9545839,3.873823 7.7167424,3.451948 7.6061734,3.3297706 7.4143077,3.1177615 7.5000885,3.1076301 9.4870125,3.1076301 c 1.1450305,0 2.0818735,-0.038562 2.0818735,-0.085694 0,-0.047131 -0.10747,-0.201819 -0.238821,-0.34375 -0.248016,-0.2679912 -0.299906,-0.4851589 -0.275573,-1.1533192 0.01306,-0.358709 0.05959,-0.4028978 0.503058,-0.477822 0.685695,-0.1158474 0.984235,0.076425 2.511336,1.6174014 l 1.3125,1.3244259 -1.51014,1.4968789 -1.510141,1.4968788 -0.646109,0 -0.64611,0 0,-0.6706426 z"
       id="path3353"
       inkscape:connector-curvature="0"
       transform="translate(60.999948,277)" />
    <path
       style="fill:#333333"
       d="m 1.0688856,12.04513 0,-0.9375 1.2483225,0 1.2483226,0 0.1858288,0.444751 c 0.1022057,0.244613 0.3033926,0.609854 0.4470819,0.811647 0.1436891,0.201793 0.2262513,0.42353 0.1834716,0.49275 -0.045722,0.07398 -0.7445155,0.125853 -1.6954045,0.125853 l -1.6176229,0 0,-0.937501 z"
       id="path3355"
       inkscape:connector-curvature="0"
       transform="translate(60.999948,277)" />
    <path
       style="fill:#ffff00;stroke:#000000;stroke-width:0.48597434;stroke-miterlimit:4;stroke-dasharray:none;stroke-opacity:1"
       d="m 66.352265,283.37734 -0.790605,-0.59423 -0.960822,0.36979 c -0.528452,0.20339 -0.979068,0.34712 -1.00137,0.31941 -0.0223,-0.0278 0.09328,-0.54087 0.256855,-1.14035 l 0.297403,-1.08997 -0.615024,-0.85182 c -0.719547,-0.99657 -0.654499,-1.11564 0.611572,-1.11936 l 0.847812,-0.003 0.539399,-0.89588 c 0.504013,-0.8371 0.79299,-1.10644 0.79299,-0.73909 0,0.0862 0.136316,0.55856 0.302924,1.04961 0.296728,0.87457 0.320142,0.89817 1.144737,1.15386 0.462997,0.14358 0.934398,0.296 1.047556,0.33874 0.130728,0.0494 -0.107004,0.33572 -0.652016,0.78533 l -0.857762,0.70762 0.03417,1.16176 c 0.0188,0.63896 -0.02014,1.15716 -0.08652,1.15153 -0.06639,-0.006 -0.476464,-0.27764 -0.911296,-0.60446 z"
       id="path3356"
       inkscape:connector-curvature="0" />
    <path
       style="fill:#ffff00;stroke:#000000;stroke-width:0.44538042;stroke-miterlimit:4;stroke-dasharray:none;stroke-opacity:1"
       d="m 68.268864,290.99069 c -0.04561,-0.12022 -0.209047,-0.58527 -0.363197,-1.03344 l -0.280272,-0.81486 -1.051081,-0.32282 -1.05108,-0.32281 0.963317,-0.66401 0.963317,-0.664 -0.09898,-1.04251 c -0.05444,-0.57338 -0.07622,-1.04251 -0.04841,-1.04251 0.02782,0 0.424431,0.27304 0.881364,0.60676 0.949358,0.69336 1.385784,0.77537 1.41264,0.26546 0.01352,-0.25684 0.03552,-0.27561 0.08885,-0.0759 0.08508,0.3187 0.02037,0.31511 0.803472,0.0447 0.351634,-0.12144 0.639334,-0.16626 0.639334,-0.0996 0,0.0666 -0.139509,0.51815 -0.31002,1.00327 l -0.310019,0.88207 0.633916,0.82188 c 0.348654,0.45204 0.609665,0.84563 0.580025,0.87464 -0.02964,0.029 -0.529967,0.0737 -1.111837,0.0993 l -1.057945,0.0465 -0.600234,0.82824 c -0.403707,0.55706 -0.627384,0.75667 -0.683157,0.60966 z"
       id="path3358"
       inkscape:connector-curvature="0" />
  </g>
  <g
     transform="translate(-60.999948,-277)"
     id="layer10"
     inkscape:label="devices"
     inkscape:groupmode="layer" />
  <g
     transform="translate(-60.999948,-277)"
     id="layer11"
     inkscape:label="apps"
     inkscape:groupmode="layer" />
  <g
     transform="translate(-60.999948,-277)"
     id="layer13"
     inkscape:label="places"
     inkscape:groupmode="layer" />
  <g
     transform="translate(-60.999948,-277)"
     id="layer14"
     inkscape:label="mimetypes"
     inkscape:groupmode="layer" />
  <g
     style="display:inline"
     transform="translate(-60.999948,-277)"
     id="layer15"
     inkscape:label="emblems"
     inkscape:groupmode="layer" />
  <g
     transform="translate(-60.999948,-277)"
     style="display:inline"
     id="g71291"
     inkscape:label="emotes"
     inkscape:groupmode="layer" />
  <g
     style="display:inline"
     transform="translate(-60.999948,-277)"
     id="g4953"
     inkscape:label="categories"
     inkscape:groupmode="layer" />
  <g
     transform="translate(-60.999948,-277)"
     style="display:inline"
     id="layer12"
     inkscape:label="actions"
     inkscape:groupmode="layer" />
</svg>
