<?xml version="1.0" encoding="UTF-8" standalone="no"?>
<!-- Created with Inkscape (http://www.inkscape.org/) -->

<svg
   xmlns:dc="http://purl.org/dc/elements/1.1/"
   xmlns:cc="http://creativecommons.org/ns#"
   xmlns:rdf="http://www.w3.org/1999/02/22-rdf-syntax-ns#"
   xmlns:svg="http://www.w3.org/2000/svg"
   xmlns="http://www.w3.org/2000/svg"
   xmlns:sodipodi="http://sodipodi.sourceforge.net/DTD/sodipodi-0.dtd"
   xmlns:inkscape="http://www.inkscape.org/namespaces/inkscape"
   width="115.9359mm"
   height="66.783249mm"
   viewBox="0 0 410.79649 236.63356"
   id="svg2"
   version="1.1"
   inkscape:version="0.91 r13725"
   sodipodi:docname="lelele.svg">
  <defs
     id="defs4" />
  <sodipodi:namedview
     id="base"
     pagecolor="#ffffff"
     bordercolor="#666666"
     borderopacity="1.0"
     inkscape:pageopacity="0.0"
     inkscape:pageshadow="2"
     inkscape:zoom="0.7"
     inkscape:cx="198.55711"
     inkscape:cy="17.122355"
     inkscape:document-units="px"
     inkscape:current-layer="layer1"
     showgrid="false"
     inkscape:window-width="762"
     inkscape:window-height="733"
     inkscape:window-x="3"
     inkscape:window-y="25"
     inkscape:window-maximized="0"
     fit-margin-top="0"
     fit-margin-left="0"
     fit-margin-right="0"
     fit-margin-bottom="0" />
  <metadata
     id="metadata7">
    <rdf:RDF>
      <cc:Work
         rdf:about="">
        <dc:format>image/svg+xml</dc:format>
        <dc:type
           rdf:resource="http://purl.org/dc/dcmitype/StillImage" />
        <dc:title></dc:title>
      </cc:Work>
    </rdf:RDF>
  </metadata>
  <g
     inkscape:label="Calque 1"
     inkscape:groupmode="layer"
     id="layer1"
     transform="translate(-64.579052,-235.55509)">
    <path
       style="fill:none;fill-rule:evenodd;stroke:#000000;stroke-width:1px;stroke-linecap:butt;stroke-linejoin:miter;stroke-opacity:1"
       d="m 64.649763,397.78336 c 7.90255,-1.12894 5.954216,-0.42037 13.131983,-3.03046 1.704108,-0.61968 3.301376,-1.5432 5.050763,-2.02031 1.976003,-0.53891 4.143151,-0.29099 6.060915,-1.01015 0.891742,-0.3344 1.34687,-1.34687 2.020305,-2.02031 0.336718,-0.33671 0.797194,-0.58423 1.010153,-1.01015 0.150584,-0.30117 -0.150585,-0.70898 0,-1.01015 0.425917,-0.85184 1.594387,-1.16847 2.020305,-2.02031 0.47619,-0.95238 0.533962,-2.07807 1.010152,-3.03045 0.542941,-1.08588 1.417967,-1.97637 2.020305,-3.03046 0.747109,-1.30744 1.222208,-2.76366 2.020305,-4.04061 0.8923,-1.42768 2.318491,-2.51497 3.030461,-4.04061 5.09981,-10.92818 3.22262,-11.89677 8.08122,-23.23351 1.3656,-3.18642 3.56671,-5.95837 5.05076,-9.09137 1.55248,-3.27746 2.49643,-6.82015 4.04061,-10.10153 1.15591,-2.45631 2.7631,-4.67574 4.04061,-7.07107 1.41727,-2.65737 2.56409,-5.4563 4.04061,-8.08122 1.55736,-2.76863 3.87101,-5.13183 5.05076,-8.08122 0.88427,-2.21066 0.51128,-4.74296 1.01016,-7.07106 0.7816,-3.64749 2.82949,-9.49863 4.04061,-13.13199 0.67343,-2.0203 1.57409,-3.9786 2.0203,-6.06091 1.30251,-6.07836 1.01015,-9.13616 1.01015,-15.15229 0,-7.40779 0,-14.81557 0,-22.22336 0,-1.68358 0,-3.36717 0,-5.05076 0,-0.33672 0.2381,-0.77206 0,-1.01015 -0.23809,-0.2381 -0.67343,0 -1.01015,0 -0.33672,0 -0.70898,-0.15059 -1.01015,0 -0.36129,0.18064 -3.76055,3.62052 -4.04061,4.04061 -0.41765,0.62647 -0.59251,1.39383 -1.01015,2.0203 -0.26415,0.39622 -0.72444,0.6292 -1.01016,1.01016 -1.45686,1.94248 -2.79136,3.97883 -4.04061,6.06091 -0.77475,1.29125 -1.18501,2.78767 -2.0203,4.04061 -0.26414,0.39622 -0.74601,0.61394 -1.01015,1.01015 -0.41765,0.62647 -0.67344,1.34687 -1.01016,2.02031 -0.33671,0.67343 -0.73052,1.32123 -1.01015,2.0203 -0.79091,1.97728 -1.2294,4.08365 -2.0203,6.06092 -0.27963,0.69907 -0.73053,1.32123 -1.01016,2.0203 -0.79091,1.97728 -1.22939,4.08365 -2.0203,6.06092 -0.27963,0.69907 -0.82754,1.28986 -1.01015,2.0203 -0.16334,0.65333 0.13207,1.35995 0,2.02031 -0.20883,1.04412 -0.67344,2.0203 -1.01016,3.03046 -1.01015,3.03046 -2.0203,6.06091 -3.03045,9.09137 -0.33672,1.01015 -0.83511,1.98015 -1.01016,3.03046 -0.16607,0.99641 0.16607,2.03405 0,3.03046 -0.3501,2.10061 -1.6702,3.9603 -2.0203,6.06091 -0.16607,0.99641 0.14285,2.03046 0,3.03046 -0.83074,5.81518 -1.47474,2.54456 -2.02031,9.09137 -0.19574,2.34888 0,4.71405 0,7.07107 0,1.68359 0,3.36717 0,5.05076 0,2.02031 0,4.04061 0,6.06092 0,1.68358 -0.30117,3.39433 0,5.05076 0.38095,2.09524 1.45998,4.00637 2.02031,6.06092 0.45175,1.65643 0.51679,3.40624 1.01015,5.05076 5.42231,18.07438 -1.61969,-9.64274 4.04061,11.11168 0.45175,1.65643 0.5584,3.39433 1.01015,5.05076 0.56033,2.05455 1.45998,4.00636 2.02031,6.06091 4.2834,15.7058 -3.07472,-7.20386 3.03046,11.11168 0.67343,2.02031 1.45997,4.00637 2.0203,6.06092 0.45175,1.65643 0.46721,3.42194 1.01015,5.05076 0.47619,1.42857 1.49157,2.63064 2.02031,4.04061 0.48747,1.29993 0.46326,2.76454 1.01015,4.04061 0.47824,1.11589 1.54207,1.91457 2.02031,3.03046 0.54688,1.27607 0.52268,2.74068 1.01015,4.04061 1.05747,2.81993 2.85424,5.31304 4.04061,8.08122 0.98564,2.29983 0.71965,3.09978 2.0203,5.05076 0.26415,0.39622 0.7972,0.58424 1.01016,1.01015 0.95238,1.90477 1.22939,4.08365 2.0203,6.06092 0.27963,0.69907 0.67344,1.34687 1.01015,2.0203 0.33672,0.67344 0.59251,1.39384 1.01016,2.02031 0.52828,0.79243 1.34687,1.34687 2.0203,2.0203 0.33672,0.33672 0.53396,1.01016 1.01015,1.01016 0.33672,0 0,-0.67344 0,-1.01016 0,-2.36898 0.2381,0.47619 -1.01015,-2.0203 -0.40406,-0.80812 0.40406,-2.22234 0,-3.03046 -0.21296,-0.42592 -0.79719,-0.58423 -1.01015,-1.01015 -0.30117,-0.60234 0.47619,-1.54412 0,-2.02031 -1.34687,-1.34687 -1.01015,1.68359 -1.01015,-1.01015"
       id="path3340"
       inkscape:connector-curvature="0" />
    <path
       style="fill:none;fill-rule:evenodd;stroke:#000000;stroke-width:1px;stroke-linecap:butt;stroke-linejoin:miter;stroke-opacity:1"
       d="m 162.63456,414.95595 c 1.01015,1.34687 1.7158,2.98888 3.03046,4.04061 0.52586,0.42069 1.38143,-0.21296 2.0203,0 0.45176,0.15058 0.54818,0.89466 1.01016,1.01015 0.97999,0.245 2.0203,0 3.03045,0 1.01016,0 2.02031,0 3.03046,0 0.87992,0 5.68807,0.18643 6.06092,0 0.42591,-0.21296 0.58423,-0.79719 1.01015,-1.01015 0.30117,-0.15059 0.70898,0.15058 1.01015,0 0.42592,-0.21296 0.67344,-0.67344 1.01015,-1.01015 3.32037,-3.32037 -2.62264,2.92381 2.02031,-4.04061 0.79243,-1.18865 2.11591,-1.933 3.03046,-3.03046 1.55443,-1.86532 2.69374,-4.04061 4.04061,-6.06092 2.16639,-3.24959 4.59798,-6.44418 6.06091,-10.10152 0.39546,-0.98864 0.80133,-1.98634 1.01015,-3.03046 0.13208,-0.66036 0,-1.34687 0,-2.02031 0,-2.0203 0,-4.04061 0,-6.06091 0,-1.68359 0.2381,-3.3841 0,-5.05076 -0.21285,-1.49 -1.38069,-5.47204 -2.0203,-7.07107 -0.27963,-0.69907 -0.77206,-1.30602 -1.01015,-2.02031 -0.10648,-0.31943 0.15058,-0.70898 0,-1.01015 -0.21296,-0.42592 -0.67344,-0.67343 -1.01016,-1.01015 -0.33671,-0.33672 -0.67343,-0.67344 -1.01015,-1.01015 -0.33672,-0.33672 -0.67343,-0.67344 -1.01015,-1.01016 -0.33672,-0.33671 -0.58424,-0.79719 -1.01015,-1.01015 -0.0861,-0.0431 -3.9545,-0.0431 -4.04061,0 -0.42592,0.21296 -0.67344,0.67344 -1.01016,1.01015 -0.33671,0.33672 -0.67343,0.67344 -1.01015,1.01016 -0.67343,0.67343 -1.34687,1.34687 -2.0203,2.0203 -0.33672,0.33672 -0.74601,0.61394 -1.01016,1.01015 -0.41764,0.62647 -0.5925,1.39384 -1.01015,2.02031 -0.26414,0.39621 -0.74601,0.61394 -1.01015,1.01015 -0.8353,1.25294 -1.18501,2.78767 -2.02031,4.04061 -0.26414,0.39622 -0.74601,0.61394 -1.01015,1.01015 -1.18449,1.77675 -1.19894,2.99735 -2.0203,5.05077 -0.94213,2.35531 -1.5417,2.17911 -2.02031,5.05076 -0.16607,0.99641 0,2.0203 0,3.03046 0,1.01015 0,2.0203 0,3.03046 0,2.35702 -0.29235,4.73224 0,7.07106 0.1722,1.3776 0.67344,2.69374 1.01015,4.04061 0.67344,2.69374 1.34687,5.38748 2.02031,8.08122 0.63857,2.55429 1.05418,4.65577 2.0203,7.07107 0.55926,1.39814 1.34687,2.69374 2.02031,4.04061 0.33672,0.67344 0.5925,1.39384 1.01015,2.02031 0.26414,0.39621 0.74601,0.61393 1.01015,1.01015 0.98139,1.47208 0.63064,2.10401 2.02031,3.03046 1.52459,1.01639 5.39682,2.6956 7.07107,3.03045 0.66035,0.13208 1.34687,0 2.0203,0 0.67344,0 1.38143,0.21296 2.02031,0 0.9035,-0.30116 1.16847,-1.59438 2.0203,-2.0203 0.30117,-0.15059 0.70898,0.15058 1.01015,0 0.85184,-0.42592 1.22788,-1.49202 2.02031,-2.02031 0.62647,-0.41764 1.43237,-0.5398 2.0203,-1.01015 1.11553,-0.89242 1.79649,-2.31064 3.03046,-3.03046 2.86454,-1.67097 6.15371,-2.50183 9.09137,-4.04061 4.14377,-2.17054 7.90921,-5.03738 12.12184,-7.07106 5.57484,-2.69131 11.44839,-4.71405 17.17259,-7.07107 5.7242,-2.35702 11.44839,-4.71405 17.17259,-7.07107 5.7242,-2.35702 11.23718,-5.31243 17.1726,-7.07107 16.27418,-1.62742 4.61881,0.4807 15.15228,-3.03046 1.44272,-0.4809 2.02031,1.32489 2.02031,-1.01015"
       id="path3342"
       inkscape:connector-curvature="0" />
    <path
       style="fill:none;fill-rule:evenodd;stroke:#000000;stroke-width:1px;stroke-linecap:butt;stroke-linejoin:miter;stroke-opacity:1"
       d="m 307.08637,383.64122 c -1.97792,-6.92296 -0.56807,-14.13992 -1.01015,-21.2132 -0.1902,-3.04317 -0.85789,-6.04607 -1.01015,-9.09138 -0.18496,-3.69927 0.33533,-7.42299 0,-11.11167 -0.34083,-3.74916 -1.69418,-7.36122 -2.02031,-11.11168 -1.80322,-20.7371 2.32488,-3.75634 -2.0203,-22.22336 -1.04214,-4.42909 -2.60315,-8.81961 -4.04061,-13.13198 -0.67344,-2.02031 -1.54145,-3.98586 -2.02031,-6.06092 -0.53538,-2.31998 -0.30994,-4.7954 -1.01015,-7.07106 -0.66427,-2.15889 -2.0203,-4.04062 -3.03046,-6.06092 -1.01015,-2.02031 -1.89233,-4.10984 -3.03045,-6.06092 0.19731,-4.46808 -4.19315,-5.27956 -6.06092,-8.08122 -0.33672,-0.50507 0.67344,-1.85194 -1.01015,-1.01015 -0.42592,0.21296 -0.67344,0.67344 -1.01015,1.01015 -1.76308,1.76308 -0.85957,0.5584 -2.02031,4.04061 -1.44918,4.34754 -0.7519,1.99746 -2.02031,7.07107 -0.33671,1.34687 -0.7618,2.67468 -1.01015,4.04061 -0.42592,2.34255 -0.51127,4.74297 -1.01015,7.07107 -0.51363,2.39693 -1.34687,4.71405 -2.02031,7.07107 -0.33671,3.03046 -0.50888,6.08375 -1.01015,9.09137 -0.83109,4.98655 -3.55088,14.29561 -4.04061,19.1929 -0.33504,3.35046 0,6.73435 0,10.10152 0,3.36718 0,6.73436 0,10.10153 0,6.73435 0,13.4687 0,20.20305 0,3.36718 -0.33504,6.75106 0,10.10153 0.34168,3.41681 1.66083,6.68653 2.02031,10.10152 0.31724,3.01381 0,6.06092 0,9.09137 0,8.41794 0,16.83588 0,25.25382 0,3.03046 -0.37588,6.08432 0,9.09137 0.43755,3.50044 2.15043,7.96139 4.04061,11.11168 0.245,0.40833 0.74601,0.61394 1.01015,1.01015 0.41765,0.62647 0.59251,1.39384 1.01015,2.02031 0.19557,0.29335 1.98486,1.8785 2.02031,2.0203 0.245,0.97999 -0.245,2.05047 0,3.03046 0.11549,0.46197 0.74601,0.61394 1.01015,1.01015 0.41765,0.62647 0.59251,1.39384 1.01015,2.02031 0.28545,0.42816 2.61251,2.82148 3.03046,3.03046 0.77738,0.38868 3.87774,-0.95587 4.04061,-1.01016 2.02031,-0.67343 4.04061,-1.34687 6.06092,-2.0203 1.01015,-0.33672 2.0203,-0.67344 3.03045,-1.01016 1.01016,-0.33671 2.07808,-0.53396 3.03046,-1.01015 0.42592,-0.21296 0.5584,-0.85957 1.01015,-1.01015 0.63888,-0.21296 1.36698,0.16333 2.02031,0 4.87797,-1.21949 -0.0501,-0.48004 3.03046,-2.02031 0.95238,-0.47619 2.27753,-0.25722 3.03045,-1.01015 0.75293,-0.75292 0.6147,-2.04182 1.01016,-3.03046 3.54346,-8.85866 -1.52317,4.81806 2.0203,-4.04061 0.39546,-0.98863 0.67344,-2.0203 1.01015,-3.03045 3.35026,-10.05077 -0.95238,2.38095 2.02031,-5.05077 0.79091,-1.97727 1.34687,-4.04061 2.0203,-6.06091 0.67344,-2.02031 1.43527,-4.01327 2.02031,-6.06092 0.3814,-1.3349 0.81381,-2.66624 1.01015,-4.04061 0.24994,-1.74953 0,-4.20489 0,-6.06091 0,-0.33672 0,-0.67344 0,-1.01015 0,-0.33672 0.2381,-0.77206 0,-1.01016 -0.14246,-0.14245 -2.82325,-0.1036 -3.03046,0 -0.42591,0.21296 -0.67343,0.67344 -1.01015,1.01016 -0.67343,0.67343 -1.49202,1.22787 -2.0203,2.0203 -0.8353,1.25294 -1.34687,2.69374 -2.02031,4.04061 -0.33672,0.67344 -0.86249,1.282 -1.01015,2.02031 -0.19811,0.99053 0,2.0203 0,3.03045 0,1.01016 0,2.02031 0,3.03046 0,1.01015 0,2.02031 0,3.03046 0,1.01015 -0.16607,2.03405 0,3.03046 0.17505,1.0503 0.71763,2.00663 1.01015,3.03045 0.3814,1.33491 0.62875,2.70571 1.01015,4.04061 0.29253,1.02383 0.67344,2.02031 1.01016,3.03046 0.33671,1.01015 0.46232,2.11741 1.01015,3.03046 0.49,0.81666 1.44888,1.2584 2.0203,2.0203 0.45176,0.60234 0.59251,1.39384 1.01016,2.02031 0.26414,0.39621 0.67343,0.67343 1.01015,1.01015 0.67343,0.67344 1.20364,1.53031 2.0203,2.02031 0.91306,0.54783 2.02031,0.67343 3.03046,1.01015 3.36924,1.12308 6.65149,2.16795 10.10153,3.03046 1.34687,0.33672 2.66624,0.81381 4.04061,1.01015 1,0.14286 2.0203,0 3.03046,0 1.01015,0 2.0203,0 3.03045,0 0.67344,0 1.45998,0.37355 2.02031,0 0.62647,-0.41765 0.47775,-1.48791 1.01015,-2.02031 0.85847,-0.85846 2.04254,-1.31465 3.03046,-2.0203 1.36999,-0.97857 2.77358,-1.92181 4.04061,-3.03046 1.43348,-1.25429 2.61697,-2.77515 4.04061,-4.04061 3.26409,-2.90141 8.60911,-5.62428 10.10152,-10.10152 0.10648,-0.31944 0,-0.67344 0,-1.01016 0,-0.67343 0,-1.34687 0,-2.0203"
       id="path3344"
       inkscape:connector-curvature="0" />
    <path
       style="fill:none;fill-rule:evenodd;stroke:#000000;stroke-width:1px;stroke-linecap:butt;stroke-linejoin:miter;stroke-opacity:1"
       d="m 373.75644,412.93564 c 1.34687,-1.68358 2.89791,-3.22244 4.04061,-5.05076 0.56434,-0.90294 0.67344,-2.0203 1.01015,-3.03046 1.44918,-4.34753 0.75191,-1.99745 2.02031,-7.07106 0.33672,-1.34687 0.46327,-2.76455 1.01015,-4.04061 0.47824,-1.11589 1.47737,-1.94458 2.02031,-3.03046 1.57215,-3.1443 1.64566,-6.87033 3.03045,-10.10153 1.06938,-2.4952 2.53477,-4.8123 4.04062,-7.07107 4.12659,-6.18989 4.99792,-4.41359 8.08122,-12.12183 1.03122,-2.57805 1.30486,-5.39833 2.0203,-8.08122 1.74046,-6.52671 2.58076,-7.39669 3.03046,-14.14213 0.17918,-2.68778 0,-5.38748 0,-8.08122 0,-3.7039 0,-7.40779 0,-11.11168 0,-2.02031 -0.33214,-4.0681 0,-6.06092 0.3501,-2.10061 1.6702,-3.9603 2.0203,-6.06091 0.33214,-1.99282 0,-4.04061 0,-6.06092 0,-2.35702 0,-4.71404 0,-7.07106 0,-2.69374 0.35602,-5.41111 0,-8.08122 -0.32398,-2.42984 -1.53955,-4.66734 -2.0203,-7.07107 -0.5324,-2.66199 -0.47776,-5.41924 -1.01015,-8.08122 -0.48075,-2.40374 -1.64757,-4.64824 -2.02031,-7.07107 -0.3072,-1.99681 0,-4.04061 0,-6.06092 0,-0.33671 0.2381,-0.77205 0,-1.01015 -0.23809,-0.23809 -0.77206,0.2381 -1.01015,0 -0.2381,-0.23809 0.23809,-0.77206 0,-1.01015 -0.2381,-0.2381 -0.67344,0 -1.01015,0 -0.33672,0 -0.70899,-0.15059 -1.01016,0 -0.42591,0.21296 -0.67343,0.67343 -1.01015,1.01015 -0.33672,0.33672 -0.67343,0.67344 -1.01015,1.01015 -2.28218,2.28218 0.30117,-0.60233 -2.02031,4.04061 -0.54294,1.08589 -1.39568,1.98942 -2.0203,3.03046 -0.38738,0.64563 -0.5584,1.41797 -1.01015,2.02031 -0.57143,0.7619 -1.53031,1.20364 -2.02031,2.0203 -0.54783,0.91306 -0.67344,2.02031 -1.01015,3.03046 -0.33672,1.01015 -0.85957,1.97636 -1.01016,3.03046 -0.19047,1.33333 0.16706,2.70414 0,4.04061 -0.1722,1.3776 -0.9178,2.65536 -1.01015,4.04061 -0.24638,3.69569 0,7.40778 0,11.11168 0,3.36717 0,6.73435 0,10.10152 0,3.03046 0,6.06092 0,9.09137 0,3.36718 -0.33504,6.75107 0,10.10153 0.34168,3.41682 1.51093,6.70566 2.02031,10.10152 0.50198,3.34654 0.50817,6.755 1.01015,10.10153 1.161,7.74001 2.32263,10.88135 4.04061,18.18275 1.42982,6.07671 2.33428,11.20043 4.04061,17.17259 0.58504,2.04765 1.6702,3.9603 2.02031,6.06091 3.30579,19.83477 -4.18163,-9.36573 1.01015,13.13199 0.047,0.20362 4.02258,12.00463 4.04061,12.12183 0.6656,4.32643 -0.71963,8.81421 0,13.13198 0.3501,2.10061 1.6702,3.9603 2.0203,6.06092 0.33214,1.99281 -0.16777,4.04759 0,6.06091 0.17009,2.0411 0.80635,4.02291 1.01016,6.06092 0.13401,1.34018 0,2.69374 0,4.04061 0,1.01015 -0.245,2.05046 0,3.03046 0.11549,0.46197 0.85956,0.55839 1.01015,1.01015 0.41818,1.25455 -0.33204,3.7226 0,5.05076 0.18261,0.73044 0.86249,1.282 1.01015,2.02031 0.19811,0.99053 -0.245,2.05046 0,3.03045 0.11549,0.46198 0.85957,0.5584 1.01015,1.01016 0.21296,0.63887 -0.21296,1.38142 0,2.0203 0.0418,0.12549 2.85716,2.94381 3.03046,3.03046 0.30117,0.15058 0.70898,-0.15059 1.01015,0 0.82137,0.41068 0.83581,1.6024 2.02031,1.01015 0.42592,-0.21296 0.67343,-0.67343 1.01015,-1.01015 1.76308,-1.76308 0.85957,-0.5584 2.02031,-4.04061 0.67343,-2.02031 1.34687,-4.04061 2.0203,-6.06092 1.00246,-3.00737 1.85336,-6.14862 3.03046,-9.09137 0.0559,-0.13964 2.01078,-3.99296 2.0203,-4.04061 0.19811,-0.99054 -0.16606,-2.03405 0,-3.03046 0.17506,-1.0503 0.83511,-1.98015 1.01016,-3.03046 0.16606,-0.9964 0,-2.0203 0,-3.03045 0,-1.68359 0,-3.36718 0,-5.05077 0,-0.82701 0.21816,-4.39626 0,-5.05076 -0.2381,-0.71428 -0.59251,-1.39383 -1.01016,-2.0203 -0.52828,-0.79243 -1.59438,-1.16847 -2.0203,-2.02031 -0.26937,-0.53875 0.60609,-1.81827 -1.01015,-1.01015 -2.23351,1.11675 -0.31348,0.62694 -1.01016,2.0203 -0.21295,0.42592 -0.89466,0.54818 -1.01015,1.01016 -0.245,0.97999 0,2.0203 0,3.03045 0,1.01016 0,2.02031 0,3.03046 0,1.01015 -0.16607,2.03405 0,3.03046 0.3501,2.10061 1.6702,3.9603 2.02031,6.06091 0.16606,0.99641 -0.16607,2.03405 0,3.03046 0.17505,1.05031 0.80133,1.98634 1.01015,3.03046 0.13207,0.66036 -0.13207,1.35995 0,2.0203 0.2891,1.4455 1.21218,3.7039 2.0203,5.05077 1.91145,3.18574 1.66166,2.67181 4.04061,5.05076 1.01016,1.01015 2.32169,1.79011 3.03046,3.03046 0.6888,1.2054 0.27435,2.86331 1.01015,4.04061 2.25142,3.60227 9.98526,8.33557 14.14214,9.09137 1.98772,0.3614 4.04061,0 6.06092,0 1.68358,0 3.39433,0.30117 5.05076,0 2.44501,-0.44455 7.00697,-1.95621 9.09137,-4.04061 0.5324,-0.5324 0.62278,-1.37468 1.01015,-2.0203 0.62463,-1.04105 1.47737,-1.94458 2.02031,-3.03046 0.47619,-0.95238 0.6147,-2.04182 1.01015,-3.03046 0.27963,-0.69907 0.82754,-1.28986 1.01015,-2.0203 0.16334,-0.65333 -0.21296,-1.38143 0,-2.02031 0.15059,-0.45175 0.7972,-0.58423 1.01016,-1.01015 0.15058,-0.30117 0,-0.67344 0,-1.01015 0,-0.33672 0.23809,-0.77206 0,-1.01016 -0.2381,-0.23809 -0.67344,0 -1.01016,0"
       id="path3346"
       inkscape:connector-curvature="0" />
  </g>
</svg>
