<?xml version="1.0" encoding="UTF-8" standalone="no"?>
<!-- Created with Inkscape (http://www.inkscape.org/) -->

<svg
   xmlns:dc="http://purl.org/dc/elements/1.1/"
   xmlns:cc="http://creativecommons.org/ns#"
   xmlns:rdf="http://www.w3.org/1999/02/22-rdf-syntax-ns#"
   xmlns:svg="http://www.w3.org/2000/svg"
   xmlns="http://www.w3.org/2000/svg"
   xmlns:sodipodi="http://sodipodi.sourceforge.net/DTD/sodipodi-0.dtd"
   xmlns:inkscape="http://www.inkscape.org/namespaces/inkscape"
   viewBox="0 0 744.09448819 1052.3622047"
   id="svg2"
   version="1.1"
   inkscape:version="0.91 r13725"
   shape-rendering="crispEdges"
   sodipodi:docname="lelele.svg">
  <defs
     id="defs4" />
  <sodipodi:namedview
     id="base"
     pagecolor="#ffffff"
     bordercolor="#666666"
     borderopacity="1.0"
     inkscape:pageopacity="0"
     inkscape:pageshadow="2"
     inkscape:zoom="0.35"
     inkscape:cx="1.868749"
     inkscape:cy="472.48552"
     inkscape:document-units="px"
     inkscape:current-layer="text3344"
     showgrid="false"
     inkscape:window-x="0"
     inkscape:window-y="31"
     inkscape:window-maximized="1"
     showborder="false" />
  <g
     inkscape:label="Calque 1"
     inkscape:groupmode="layer"
     id="layer1">
      <g
       transform="matrix(0.91523903,0,0,1.0926107,-5.7142857,-8.5714286)"
       style="font-style:normal;font-weight:normal;font-size:844.27056885px;line-height:125%;font-family:sans-serif;letter-spacing:0px;word-spacing:0px;fill:#000000;fill-opacity:1;stroke:none;stroke-width:1px;stroke-linecap:butt;stroke-linejoin:miter;stroke-opacity:1"
       id="text3344">
      <path
         d="m 56.839176,136.49533 118.569664,0 0,545.39549 426.73342,0 0,70.08105 -545.303084,0 0,-615.47654 z"
         style="fill:#4d4d4d"
         id="path3405"
         inkscape:connector-curvature="0" />
      <path
         d="m 522.59169,311.18115 q 37.92622,7.42035 58.5383,30.09363 21.02431,22.26104 21.02431,56.06485 0,51.11794 -39.16294,78.73812 -39.16294,27.62018 -112.12969,27.62018 -23.49776,0 -49.46897,-4.12242 -25.55898,-4.53465 -54.41588,-12.77948 l 0,-49.88122 q 21.43656,11.13052 45.7588,16.48966 24.73449,5.35914 52.35467,5.35914 44.93433,0 69.66882,-16.07742 24.73448,-16.48966 24.73448,-45.34656 0,-30.50587 -23.08552,-46.17105 -22.67328,-15.66518 -67.19536,-15.66518 l -35.45277,0 0,-44.52208 38.7507,0 q 38.7507,0 58.53829,-12.77948 20.19983,-13.19173 20.19983,-37.92622 0,-23.91001 -20.61207,-36.27725 -20.61207,-12.77949 -59.77502,-12.77949 -16.48965,0 -37.51397,3.71017 -21.02432,3.71018 -54.41588,13.19173 l 0,-47.40777 q 30.09363,-7.0081 56.47709,-10.71828 26.38345,-3.71017 49.05673,-3.71017 59.36278,0 93.99106,24.32225 35.04053,24.32224 35.04053,65.13415 0,28.44466 -18.55087,48.23226 -18.55086,19.78759 -52.35467,27.20793 z"
         style="font-style:normal;font-variant:normal;font-weight:normal;font-stretch:normal;font-size:844.27056885px;line-height:125%;font-family:Dustismo;-inkscape-font-specification:'Dustismo, Normal';text-align:start;writing-mode:lr-tb;text-anchor:start;fill:#ff0000"
         id="path3407"
         inkscape:connector-curvature="0" />
    </g>
  </g>
</svg>
