<?xml version="1.0" encoding="UTF-8" standalone="no"?>
<svg id="svg7384" xmlns:rdf="http://www.w3.org/1999/02/22-rdf-syntax-ns#" xmlns="http://www.w3.org/2000/svg" height="16" width="16" version="1.1" xmlns:cc="http://creativecommons.org/ns#" xmlns:dc="http://purl.org/dc/elements/1.1/">
 <metadata id="metadata90">
  <rdf:RDF>
   <cc:Work rdf:about="">
    <dc:format>image/svg+xml</dc:format>
    <dc:type rdf:resource="http://purl.org/dc/dcmitype/StillImage"/>
    <dc:title>Gnome Symbolic Icon Theme</dc:title>
   </cc:Work>
  </rdf:RDF>
 </metadata>
 <title id="title9167">Gnome Symbolic Icon Theme</title>
 <g id="layer9" transform="translate(-61 -277)">
  <path id="path4544" d="m62 280v2h3c0.57 0 1 0.43 1 1v4c0 1.64 1.36 3 3 3h6v-2h-6c-0.57 0-1-0.43-1-1v-4c0-1.64-1.36-3-3-3h-3z" style="block-progression:tb;text-indent:0;color:#bebebe;text-transform:none" fill="#bebebe"/>
  <path id="rect3217-6-2" d="m72.78 286a1 1 0 0 0 -0.5 1.72l1.28 1.28-1.28 1.28a1.02 1.02 0 1 0 1.44 1.44l2-2 0.69-0.72-0.69-0.72-2-2a1 1 0 0 0 -0.94 -0.28z" style="block-progression:tb;text-indent:0;color:#bebebe;text-transform:none" fill="#bebebe"/>
  <path id="rect3217-6-2-2" d="m72.78 278a1 1 0 0 0 -0.5 1.72l1.28 1.28-1.28 1.28a1.02 1.02 0 1 0 1.44 1.44l2-2 0.69-0.72-0.69-0.72-2-2a1 1 0 0 0 -0.94 -0.28z" style="block-progression:tb;text-indent:0;color:#bebebe;text-transform:none" fill="#bebebe"/>
  <path id="path4544-1" d="m69 280c-0.23 0-0.44 0.04-0.66 0.09 0.48 0.55 0.86 1.18 1.03 1.91h5.63v-2h-6zm-7 8v2h3c0.23 0 0.44-0.04 0.66-0.09-0.48-0.55-0.86-1.18-1.03-1.91h-2.62z" style="color:#bebebe;text-transform:none;text-indent:0" fill="#bebebe"/>
  <rect id="rect4723-9" style="color:#000000" height="1" width="1" y="286" x="72" fill="#bebebe"/>
  <rect id="rect4723-0-7" style="color:#000000" height="1" width="1" y="291" x="72" fill="#bebebe"/>
  <rect id="rect4723-9-6" style="color:#000000" height="1" width="1" y="278" x="72" fill="#bebebe"/>
  <rect id="rect4723-0-7-8" style="color:#000000" height="1" width="1" y="283" x="72" fill="#bebebe"/>
  <path id="path3351" fill="#333" d="m11.07 14.31c0-0.48 0.07-0.76 0.25-0.99l0.25-0.32-2.16-0.04c-2.36-0.04-2.61-0.11-3.45-0.9-0.79-0.75-0.82-0.87-0.89-3.87-0.08-3.43 0.08-3.21-2.33-3.21h-1.67v-0.94-0.94h1.82c1.24 0 1.94 0.05 2.22 0.17 0.65 0.27 1.23 0.84 1.54 1.51 0.28 0.59 0.29 0.77 0.29 3.09 0 2.42 0.01 2.47 0.3 2.81l0.3 0.35 2.01 0.04c1.11 0.02 2.01 0 2.01-0.05s-0.11-0.21-0.24-0.35c-0.25-0.27-0.3-0.49-0.28-1.15 0.01-0.36 0.06-0.4 0.5-0.48 0.69-0.12 0.98 0.08 2.51 1.62l1.31 1.32-1.51 1.5-1.51 1.5h-0.65-0.65v-0.67z" transform="translate(61 277)"/>
  <path id="path3353" fill="#333" d="m11.07 6.31c0-0.49 0.07-0.76 0.26-1l0.26-0.33h-1.56-1.56l-0.34-0.71c-0.18-0.4-0.41-0.82-0.52-0.94-0.2-0.21-0.11-0.22 1.88-0.22 1.15 0 2.08-0.04 2.08-0.09s-0.11-0.2-0.24-0.34c-0.25-0.27-0.3-0.49-0.28-1.15 0.01-0.36 0.06-0.4 0.5-0.48 0.69-0.12 0.98 0.08 2.51 1.62l1.31 1.32-1.51 1.5-1.51 1.5h-0.65-0.65v-0.67z" transform="translate(61 277)"/>
  <path id="path3355" fill="#333" d="m1.07 12.05v-0.94h1.25 1.25l0.19 0.44c0.1 0.24 0.3 0.61 0.45 0.81 0.14 0.2 0.23 0.42 0.18 0.49s-0.74 0.13-1.7 0.13h-1.62v-0.94z" transform="translate(61 277)"/>
  <path id="path3356" d="m66.35 283.38-0.79-0.59-0.96 0.37c-0.53 0.2-0.98 0.35-1 0.32s0.09-0.54 0.26-1.14l0.3-1.09-0.62-0.85c-0.72-1-0.65-1.12 0.61-1.12h0.85l0.54-0.9c0.5-0.84 0.79-1.11 0.79-0.74 0 0.09 0.14 0.56 0.3 1.05 0.3 0.87 0.32 0.9 1.14 1.15 0.46 0.14 0.93 0.3 1.05 0.34 0.13 0.05-0.11 0.34-0.65 0.79l-0.86 0.71 0.03 1.16c0.02 0.64-0.02 1.16-0.09 1.15s-0.48-0.28-0.91-0.6z" stroke="#000" stroke-width=".49" fill="#ff0"/>
  <path id="path3358" d="m68.27 290.99c-0.05-0.12-0.21-0.59-0.36-1.03l-0.28-0.81-1.05-0.32-1.05-0.32 0.96-0.66 0.96-0.66-0.1-1.04c-0.05-0.57-0.08-1.04-0.05-1.04s0.42 0.27 0.88 0.61c0.95 0.69 1.39 0.78 1.41 0.27 0.01-0.26 0.04-0.28 0.09-0.08 0.09 0.32 0.02 0.32 0.8 0.04 0.35-0.12 0.64-0.17 0.64-0.1s-0.14 0.52-0.31 1l-0.31 0.88 0.63 0.82c0.35 0.45 0.61 0.85 0.58 0.87-0.03 0.03-0.53 0.07-1.11 0.1l-1.06 0.05-0.6 0.83c-0.4 0.56-0.63 0.76-0.68 0.61z" stroke="#000" stroke-width=".45" fill="#ff0"/>
 </g>
</svg>
